<svg width="108" height="45" viewBox="0 0 108 45" fill="none" xmlns="http://www.w3.org/2000/svg">
<g clip-path="url(#clip0_273_3)">
<path d="M38.5566 26.0837C38.5566 25.6796 38.6658 25.3121 38.9205 24.9447C39.175 24.5773 39.4661 24.3936 39.8298 24.3936C40.0845 24.3936 40.4119 24.5773 40.8484 24.9447C41.2849 25.3121 41.9397 25.6796 42.7764 26.047C43.6131 26.4144 44.5952 26.5981 45.7229 26.5981C47.2143 26.5981 48.3057 26.3409 48.9604 25.7898C49.6152 25.2387 49.979 24.5406 49.979 23.7322C49.979 22.7402 49.6152 21.9319 48.8513 21.344C48.0874 20.7562 47.178 20.3153 46.123 19.9846C45.0317 19.6907 43.9768 19.36 42.8855 18.9926C41.7942 18.6252 40.8848 18.0006 40.1573 17.1555C39.4297 16.3105 39.0296 15.1715 39.0296 13.7753C39.0296 12.0852 39.648 10.6155 40.8484 9.36626C42.0488 8.11704 43.904 7.49243 46.3777 7.49243C47.9418 7.49243 49.397 7.74963 50.7065 8.22726C52.0161 8.70496 52.6708 9.25604 52.6708 9.88065C52.6708 10.2481 52.5253 10.6522 52.2343 11.0932C51.9433 11.534 51.6159 11.7545 51.1794 11.7545C51.0703 11.7545 50.4883 11.534 49.4697 11.0932C48.4511 10.6522 47.4326 10.4318 46.4141 10.4318C45.0317 10.4318 44.0132 10.7625 43.3584 11.4238C42.7036 12.0852 42.3399 12.82 42.3399 13.6283C42.3399 14.4733 42.7036 15.1347 43.4676 15.6491C44.1951 16.1267 45.1409 16.5309 46.2321 16.7881C47.3234 17.0453 48.4148 17.4127 49.4697 17.7801C50.561 18.1843 51.4704 18.8456 52.198 19.8009C52.9255 20.7562 53.3256 22.0054 53.3256 23.5118C53.3256 25.3489 52.6708 26.8185 51.3613 27.8841C50.0517 28.9496 48.1965 29.5007 45.8684 29.5007C43.8313 29.5007 42.1216 29.1333 40.6665 28.3985C39.2478 27.6636 38.5566 26.8921 38.5566 26.0837Z" fill="#384967"/>
<path d="M56.1997 22.336V2.42207C56.1997 2.05465 56.3816 1.76072 56.7817 1.50353C57.1819 1.24634 57.582 1.13611 58.0185 1.13611C58.4914 1.13611 58.9279 1.28308 59.3281 1.50353C59.7282 1.76072 59.9101 2.05465 59.9101 2.42207V7.71284H65.5485C65.8759 7.71284 66.1305 7.85982 66.3488 8.15378C66.5671 8.44767 66.6762 8.81508 66.6762 9.18256C66.6762 9.58667 66.5671 9.91739 66.3488 10.2113C66.1305 10.5052 65.8759 10.6522 65.5485 10.6522H59.9101V22.2258C59.9101 23.5118 60.2011 24.4303 60.7468 24.9447C61.2924 25.4591 62.2746 25.7163 63.6205 25.7163H65.0028C65.5121 25.7163 65.9123 25.8632 66.2033 26.1939C66.4943 26.5246 66.6398 26.9287 66.6398 27.4064C66.6398 27.8841 66.4943 28.2882 66.2033 28.6189C65.9123 28.9495 65.5121 29.1333 65.0392 29.1333H63.6569C58.6733 29.17 56.1997 26.892 56.1997 22.336Z" fill="#384967"/>
<path d="M67.9854 20.7563V16.1268C67.9854 13.8121 68.8584 11.7913 70.6044 10.0645C72.3507 8.33761 74.4237 7.45581 76.7885 7.45581C79.1533 7.45581 81.2628 8.30085 83.009 10.0277C84.7552 11.7545 85.6641 13.7753 85.6641 16.1268V20.7563C85.6641 23.0343 84.7917 25.0918 83.009 26.8554C81.2263 28.619 79.1533 29.5375 76.8249 29.5375C74.4602 29.5375 72.4236 28.6557 70.6409 26.8921C68.8584 25.0918 67.9854 23.071 67.9854 20.7563ZM71.6956 20.7195C71.6956 22.1157 72.2048 23.3649 73.2238 24.4671C74.2421 25.5327 75.4427 26.0838 76.7885 26.0838C78.2072 26.0838 79.4078 25.5327 80.4261 24.4305C81.4444 23.3282 81.9542 22.1157 81.9542 20.7195V16.1636C81.9542 14.8041 81.4444 13.5917 80.4261 12.5261C79.4078 11.4607 78.2072 10.9095 76.7885 10.9095C75.3697 10.9095 74.1691 11.4607 73.1873 12.5261C72.1683 13.5917 71.6956 14.8041 71.6956 16.1636V20.7195Z" fill="#384967"/>
<path d="M89.1567 27.8107V9.03568C89.1567 8.6315 89.3384 8.33761 89.6659 8.08042C89.9934 7.82322 90.4661 7.71301 90.9759 7.71301C91.4486 7.71301 91.849 7.82322 92.1758 8.08042C92.5033 8.33761 92.6857 8.6315 92.6857 9.03568V11.2035C93.2313 10.1747 93.995 9.29287 95.0498 8.55805C96.1045 7.82322 97.2687 7.45581 98.5422 7.45581H100.07C100.47 7.45581 100.798 7.63948 101.089 7.9702C101.38 8.33761 101.525 8.74172 101.525 9.18266C101.525 9.62352 101.38 10.0277 101.089 10.3584C100.798 10.6891 100.47 10.8727 100.07 10.8727H98.5422C97.0141 10.8727 95.7048 11.4973 94.5771 12.7099C93.4494 13.9591 92.8673 15.539 92.8673 17.4862V27.7739C92.8673 28.1046 92.6857 28.3985 92.3217 28.6925C91.9577 28.9864 91.5215 29.1334 91.0124 29.1334C90.5025 29.1334 90.0663 28.9864 89.7023 28.7292C89.3026 28.472 89.1567 28.1413 89.1567 27.8107Z" fill="#384967"/>
<path d="M104.108 4.73691C103.635 4.296 103.417 3.78163 103.417 3.2305C103.417 2.64263 103.635 2.16499 104.072 1.7241C104.508 1.31993 105.054 1.09949 105.745 1.09949C106.363 1.09949 106.909 1.31993 107.345 1.7241C107.782 2.12825 108 2.64263 108 3.2305C108 3.81837 107.782 4.296 107.345 4.73691C106.909 5.17781 106.363 5.39826 105.745 5.39826C105.126 5.39826 104.581 5.17781 104.108 4.73691ZM103.89 27.8106V9.03569C103.89 8.63152 104.072 8.33756 104.435 8.08036C104.799 7.82324 105.236 7.71295 105.745 7.71295C106.29 7.71295 106.727 7.82324 107.091 8.08036C107.455 8.33756 107.636 8.63152 107.636 9.03569V27.8106C107.636 28.1414 107.455 28.4352 107.091 28.7292C106.727 29.0232 106.29 29.1701 105.781 29.1701C105.272 29.1701 104.835 29.0232 104.472 28.766C104.072 28.472 103.89 28.1414 103.89 27.8106Z" fill="#384967"/>
<path d="M20.0775 2.56914C20.8778 4.66341 19.8592 7.05161 17.7858 7.85995L5.92693 12.5996C3.85345 13.4079 1.52534 12.3792 0.688677 10.2849C-0.147988 8.1906 0.906934 5.8024 2.98042 4.99408L14.8393 0.291155C16.9127 -0.553902 19.2772 0.511605 20.0775 2.56914Z" fill="#00F5EB"/>
<path d="M8.8007 31.1175C8.00038 29.0232 9.01894 26.635 11.0924 25.8267L22.9512 21.1237C25.0248 20.3154 27.3892 21.3442 28.1895 23.4384C28.9898 25.5327 27.9713 27.9209 25.8978 28.7293L14.039 33.3954C12.0018 34.2405 9.63735 33.175 8.8007 31.1175Z" fill="#FF8CD9"/>
<path d="M0.688379 10.285C1.48867 12.3792 3.85316 13.408 5.92663 12.5997L6.9088 12.2322C6.7633 11.975 6.61779 11.6811 6.50866 11.3872C5.05359 7.63955 6.87243 3.45099 10.5465 1.98132L2.98011 4.99413C0.906638 5.80246 -0.111909 8.19063 0.688379 10.285Z" fill="#78ACF8"/>
<path d="M22.4055 22.3362C23.8606 26.0471 22.0418 30.2724 18.3677 31.7053L25.9341 28.6925C28.0075 27.8842 29.0261 25.496 28.2258 23.4017C27.4255 21.3074 25.061 20.2787 22.9875 21.087L22.0054 21.4544C22.1509 21.7483 22.2964 22.0423 22.4055 22.3362Z" fill="#BA6BEB"/>
<path d="M28.1167 19.507C27.1345 17.4862 26.0796 16.4942 24.3335 15.4287C23.3514 14.8408 19.3499 13.5549 15.1302 12.2689C10.2193 10.7257 4.69006 8.96211 3.63513 8.44779C1.63441 7.52922 1.45253 6.31674 2.10731 5.50842C-0.184423 6.94135 -0.584568 11.3871 0.797748 14.2529C1.77992 16.2737 2.83485 17.2658 4.58093 18.3312C5.5631 18.9192 9.56452 20.2051 13.7842 21.491C18.6951 23.0342 24.2244 24.8345 25.2793 25.3121C27.28 26.2307 27.4619 27.4432 26.8071 28.2515C29.0988 26.8186 29.499 22.3728 28.1167 19.507Z" fill="#A9FF95"/>
</g>
<path d="M52.21 44C52.1293 44 52.067 43.978 52.023 43.934C51.979 43.8827 51.957 43.8203 51.957 43.747V36.564C51.957 36.4833 51.979 36.421 52.023 36.377C52.067 36.3257 52.1293 36.3 52.21 36.3H52.716C52.804 36.3 52.87 36.322 52.914 36.366C52.958 36.4027 52.9837 36.432 52.991 36.454L56.643 42.064V36.564C56.643 36.4833 56.665 36.421 56.709 36.377C56.753 36.3257 56.8153 36.3 56.896 36.3H57.424C57.5047 36.3 57.567 36.3257 57.611 36.377C57.6623 36.421 57.688 36.4833 57.688 36.564V43.736C57.688 43.8093 57.6623 43.8717 57.611 43.923C57.567 43.9743 57.5083 44 57.435 44H56.907C56.8263 44 56.764 43.978 56.72 43.934C56.6833 43.89 56.6577 43.8607 56.643 43.846L53.002 38.291V43.747C53.002 43.8203 52.9763 43.8827 52.925 43.934C52.881 43.978 52.8187 44 52.738 44H52.21ZM61.7504 44.11C60.9878 44.11 60.3828 43.879 59.9354 43.417C59.4881 42.9477 59.2424 42.3097 59.1984 41.503C59.1911 41.4077 59.1874 41.2867 59.1874 41.14C59.1874 40.986 59.1911 40.8613 59.1984 40.766C59.2278 40.2453 59.3488 39.7907 59.5614 39.402C59.7741 39.006 60.0638 38.7017 60.4304 38.489C60.8044 38.2763 61.2408 38.17 61.7394 38.17C62.2968 38.17 62.7624 38.2873 63.1364 38.522C63.5178 38.7567 63.8074 39.0903 64.0054 39.523C64.2034 39.9557 64.3024 40.4617 64.3024 41.041V41.228C64.3024 41.3087 64.2768 41.371 64.2254 41.415C64.1814 41.459 64.1228 41.481 64.0494 41.481H60.2434C60.2434 41.4883 60.2434 41.503 60.2434 41.525C60.2434 41.547 60.2434 41.5653 60.2434 41.58C60.2581 41.8807 60.3241 42.163 60.4414 42.427C60.5588 42.6837 60.7274 42.8927 60.9474 43.054C61.1748 43.2153 61.4388 43.296 61.7394 43.296C62.0034 43.296 62.2234 43.2557 62.3994 43.175C62.5754 43.0943 62.7184 43.0063 62.8284 42.911C62.9384 42.8083 63.0118 42.7277 63.0484 42.669C63.1144 42.581 63.1658 42.5297 63.2024 42.515C63.2391 42.493 63.2978 42.482 63.3784 42.482H63.9174C63.9834 42.482 64.0384 42.504 64.0824 42.548C64.1338 42.5847 64.1558 42.6397 64.1484 42.713C64.1411 42.823 64.0824 42.9587 63.9724 43.12C63.8624 43.274 63.7048 43.428 63.4994 43.582C63.3014 43.736 63.0521 43.8643 62.7514 43.967C62.4581 44.0623 62.1244 44.11 61.7504 44.11ZM60.2434 40.722H63.2574V40.689C63.2574 40.359 63.1951 40.0657 63.0704 39.809C62.9531 39.5523 62.7808 39.3507 62.5534 39.204C62.3261 39.05 62.0548 38.973 61.7394 38.973C61.4241 38.973 61.1528 39.05 60.9254 39.204C60.7054 39.3507 60.5368 39.5523 60.4194 39.809C60.3021 40.0657 60.2434 40.359 60.2434 40.689V40.722ZM66.9853 44C66.89 44 66.8167 43.978 66.7653 43.934C66.714 43.8827 66.67 43.813 66.6333 43.725L65.0713 38.621C65.0567 38.5843 65.0493 38.5477 65.0493 38.511C65.0493 38.445 65.0713 38.39 65.1153 38.346C65.1667 38.302 65.2217 38.28 65.2803 38.28H65.7643C65.845 38.28 65.9073 38.302 65.9513 38.346C65.9953 38.39 66.0247 38.4303 66.0393 38.467L67.2603 42.614L68.5693 38.511C68.584 38.4597 68.6133 38.4083 68.6573 38.357C68.7087 38.3057 68.782 38.28 68.8773 38.28H69.2513C69.3467 38.28 69.42 38.3057 69.4713 38.357C69.5227 38.4083 69.552 38.4597 69.5593 38.511L70.8683 42.614L72.0893 38.467C72.0967 38.4303 72.1223 38.39 72.1663 38.346C72.2103 38.302 72.2727 38.28 72.3533 38.28H72.8483C72.907 38.28 72.9583 38.302 73.0023 38.346C73.0463 38.39 73.0683 38.445 73.0683 38.511C73.0683 38.5477 73.061 38.5843 73.0463 38.621L71.4953 43.725C71.466 43.813 71.4257 43.8827 71.3743 43.934C71.323 43.978 71.2423 44 71.1323 44H70.7033C70.608 44 70.5273 43.978 70.4613 43.934C70.4027 43.8827 70.3623 43.813 70.3403 43.725L69.0643 39.787L67.7883 43.725C67.759 43.813 67.715 43.8827 67.6563 43.934C67.5977 43.978 67.517 44 67.4143 44H66.9853ZM76.127 44.11C75.7163 44.11 75.3643 44.0587 75.071 43.956C74.7777 43.8533 74.5393 43.7287 74.356 43.582C74.1727 43.4353 74.0333 43.2887 73.938 43.142C73.85 42.9953 73.8023 42.878 73.795 42.79C73.7877 42.7093 73.8133 42.647 73.872 42.603C73.9307 42.559 73.9893 42.537 74.048 42.537H74.543C74.5797 42.537 74.609 42.5443 74.631 42.559C74.6603 42.5663 74.697 42.5957 74.741 42.647C74.8363 42.7497 74.9427 42.8523 75.06 42.955C75.1773 43.0577 75.3203 43.142 75.489 43.208C75.665 43.274 75.8813 43.307 76.138 43.307C76.512 43.307 76.82 43.2373 77.062 43.098C77.304 42.9513 77.425 42.7387 77.425 42.46C77.425 42.2767 77.3737 42.13 77.271 42.02C77.1757 41.91 76.9997 41.811 76.743 41.723C76.4937 41.635 76.149 41.5433 75.709 41.448C75.269 41.3453 74.9207 41.2207 74.664 41.074C74.4073 40.92 74.224 40.7403 74.114 40.535C74.004 40.3223 73.949 40.084 73.949 39.82C73.949 39.5487 74.0297 39.2883 74.191 39.039C74.3523 38.7823 74.587 38.5733 74.895 38.412C75.2103 38.2507 75.6027 38.17 76.072 38.17C76.4533 38.17 76.7797 38.2177 77.051 38.313C77.3223 38.4083 77.546 38.5293 77.722 38.676C77.898 38.8153 78.03 38.9547 78.118 39.094C78.206 39.2333 78.2537 39.3507 78.261 39.446C78.2683 39.5193 78.2463 39.5817 78.195 39.633C78.1437 39.677 78.085 39.699 78.019 39.699H77.557C77.5057 39.699 77.4617 39.688 77.425 39.666C77.3957 39.644 77.3663 39.6183 77.337 39.589C77.2637 39.4937 77.1757 39.3983 77.073 39.303C76.9777 39.2077 76.8493 39.1307 76.688 39.072C76.534 39.006 76.3287 38.973 76.072 38.973C75.7053 38.973 75.4303 39.05 75.247 39.204C75.0637 39.358 74.972 39.5523 74.972 39.787C74.972 39.9263 75.0123 40.051 75.093 40.161C75.1737 40.271 75.3277 40.37 75.555 40.458C75.7823 40.546 76.1197 40.6413 76.567 40.744C77.051 40.8393 77.4323 40.9677 77.711 41.129C77.9897 41.2903 78.1877 41.4773 78.305 41.69C78.4223 41.9027 78.481 42.1483 78.481 42.427C78.481 42.735 78.393 43.0173 78.217 43.274C78.041 43.5307 77.777 43.736 77.425 43.89C77.073 44.0367 76.6403 44.11 76.127 44.11ZM80.0184 44C79.9451 44 79.8828 43.978 79.8314 43.934C79.7874 43.8827 79.7654 43.8203 79.7654 43.747V36.443C79.7654 36.3697 79.7874 36.311 79.8314 36.267C79.8828 36.2157 79.9451 36.19 80.0184 36.19H80.5354C80.6161 36.19 80.6784 36.2157 80.7224 36.267C80.7664 36.311 80.7884 36.3697 80.7884 36.443V43.747C80.7884 43.8203 80.7664 43.8827 80.7224 43.934C80.6784 43.978 80.6161 44 80.5354 44H80.0184ZM84.7172 44.11C83.9546 44.11 83.3496 43.879 82.9022 43.417C82.4549 42.9477 82.2092 42.3097 82.1652 41.503C82.1579 41.4077 82.1542 41.2867 82.1542 41.14C82.1542 40.986 82.1579 40.8613 82.1652 40.766C82.1946 40.2453 82.3156 39.7907 82.5282 39.402C82.7409 39.006 83.0306 38.7017 83.3972 38.489C83.7712 38.2763 84.2076 38.17 84.7062 38.17C85.2636 38.17 85.7292 38.2873 86.1032 38.522C86.4846 38.7567 86.7742 39.0903 86.9722 39.523C87.1702 39.9557 87.2692 40.4617 87.2692 41.041V41.228C87.2692 41.3087 87.2436 41.371 87.1922 41.415C87.1482 41.459 87.0896 41.481 87.0162 41.481H83.2102C83.2102 41.4883 83.2102 41.503 83.2102 41.525C83.2102 41.547 83.2102 41.5653 83.2102 41.58C83.2249 41.8807 83.2909 42.163 83.4082 42.427C83.5256 42.6837 83.6942 42.8927 83.9142 43.054C84.1416 43.2153 84.4056 43.296 84.7062 43.296C84.9702 43.296 85.1902 43.2557 85.3662 43.175C85.5422 43.0943 85.6852 43.0063 85.7952 42.911C85.9052 42.8083 85.9786 42.7277 86.0152 42.669C86.0812 42.581 86.1326 42.5297 86.1692 42.515C86.2059 42.493 86.2646 42.482 86.3452 42.482H86.8842C86.9502 42.482 87.0052 42.504 87.0492 42.548C87.1006 42.5847 87.1226 42.6397 87.1152 42.713C87.1079 42.823 87.0492 42.9587 86.9392 43.12C86.8292 43.274 86.6716 43.428 86.4662 43.582C86.2682 43.736 86.0189 43.8643 85.7182 43.967C85.4249 44.0623 85.0912 44.11 84.7172 44.11ZM83.2102 40.722H86.2242V40.689C86.2242 40.359 86.1619 40.0657 86.0372 39.809C85.9199 39.5523 85.7476 39.3507 85.5202 39.204C85.2929 39.05 85.0216 38.973 84.7062 38.973C84.3909 38.973 84.1196 39.05 83.8922 39.204C83.6722 39.3507 83.5036 39.5523 83.3862 39.809C83.2689 40.0657 83.2102 40.359 83.2102 40.689V40.722ZM90.7853 44C90.3746 44 90.0409 43.923 89.7843 43.769C89.5276 43.6077 89.3406 43.384 89.2233 43.098C89.1059 42.8047 89.0473 42.46 89.0473 42.064V39.16H88.1893C88.1159 39.16 88.0536 39.138 88.0023 39.094C87.9583 39.0427 87.9363 38.9803 87.9363 38.907V38.533C87.9363 38.4597 87.9583 38.401 88.0023 38.357C88.0536 38.3057 88.1159 38.28 88.1893 38.28H89.0473V36.443C89.0473 36.3697 89.0693 36.311 89.1133 36.267C89.1646 36.2157 89.2269 36.19 89.3003 36.19H89.8173C89.8906 36.19 89.9493 36.2157 89.9933 36.267C90.0446 36.311 90.0703 36.3697 90.0703 36.443V38.28H91.4343C91.5149 38.28 91.5773 38.3057 91.6213 38.357C91.6653 38.401 91.6873 38.4597 91.6873 38.533V38.907C91.6873 38.9803 91.6653 39.0427 91.6213 39.094C91.5773 39.138 91.5149 39.16 91.4343 39.16H90.0703V41.987C90.0703 42.3317 90.1289 42.603 90.2463 42.801C90.3636 42.999 90.5726 43.098 90.8733 43.098H91.5443C91.6176 43.098 91.6763 43.1237 91.7203 43.175C91.7716 43.219 91.7973 43.2777 91.7973 43.351V43.747C91.7973 43.8203 91.7716 43.8827 91.7203 43.934C91.6763 43.978 91.6176 44 91.5443 44H90.7853ZM95.0822 44C94.6715 44 94.3378 43.923 94.0812 43.769C93.8245 43.6077 93.6375 43.384 93.5202 43.098C93.4028 42.8047 93.3442 42.46 93.3442 42.064V39.16H92.4862C92.4128 39.16 92.3505 39.138 92.2992 39.094C92.2552 39.0427 92.2332 38.9803 92.2332 38.907V38.533C92.2332 38.4597 92.2552 38.401 92.2992 38.357C92.3505 38.3057 92.4128 38.28 92.4862 38.28H93.3442V36.443C93.3442 36.3697 93.3662 36.311 93.4102 36.267C93.4615 36.2157 93.5238 36.19 93.5972 36.19H94.1142C94.1875 36.19 94.2462 36.2157 94.2902 36.267C94.3415 36.311 94.3672 36.3697 94.3672 36.443V38.28H95.7312C95.8118 38.28 95.8742 38.3057 95.9182 38.357C95.9622 38.401 95.9842 38.4597 95.9842 38.533V38.907C95.9842 38.9803 95.9622 39.0427 95.9182 39.094C95.8742 39.138 95.8118 39.16 95.7312 39.16H94.3672V41.987C94.3672 42.3317 94.4258 42.603 94.5432 42.801C94.6605 42.999 94.8695 43.098 95.1702 43.098H95.8412C95.9145 43.098 95.9732 43.1237 96.0172 43.175C96.0685 43.219 96.0942 43.2777 96.0942 43.351V43.747C96.0942 43.8203 96.0685 43.8827 96.0172 43.934C95.9732 43.978 95.9145 44 95.8412 44H95.0822ZM99.434 44.11C98.6714 44.11 98.0664 43.879 97.619 43.417C97.1717 42.9477 96.926 42.3097 96.882 41.503C96.8747 41.4077 96.871 41.2867 96.871 41.14C96.871 40.986 96.8747 40.8613 96.882 40.766C96.9114 40.2453 97.0324 39.7907 97.245 39.402C97.4577 39.006 97.7474 38.7017 98.114 38.489C98.488 38.2763 98.9244 38.17 99.423 38.17C99.9804 38.17 100.446 38.2873 100.82 38.522C101.201 38.7567 101.491 39.0903 101.689 39.523C101.887 39.9557 101.986 40.4617 101.986 41.041V41.228C101.986 41.3087 101.96 41.371 101.909 41.415C101.865 41.459 101.806 41.481 101.733 41.481H97.927C97.927 41.4883 97.927 41.503 97.927 41.525C97.927 41.547 97.927 41.5653 97.927 41.58C97.9417 41.8807 98.0077 42.163 98.125 42.427C98.2424 42.6837 98.411 42.8927 98.631 43.054C98.8584 43.2153 99.1224 43.296 99.423 43.296C99.687 43.296 99.907 43.2557 100.083 43.175C100.259 43.0943 100.402 43.0063 100.512 42.911C100.622 42.8083 100.695 42.7277 100.732 42.669C100.798 42.581 100.849 42.5297 100.886 42.515C100.923 42.493 100.981 42.482 101.062 42.482H101.601C101.667 42.482 101.722 42.504 101.766 42.548C101.817 42.5847 101.839 42.6397 101.832 42.713C101.825 42.823 101.766 42.9587 101.656 43.12C101.546 43.274 101.388 43.428 101.183 43.582C100.985 43.736 100.736 43.8643 100.435 43.967C100.142 44.0623 99.808 44.11 99.434 44.11ZM97.927 40.722H100.941V40.689C100.941 40.359 100.879 40.0657 100.754 39.809C100.637 39.5523 100.464 39.3507 100.237 39.204C100.01 39.05 99.7384 38.973 99.423 38.973C99.1077 38.973 98.8364 39.05 98.609 39.204C98.389 39.3507 98.2204 39.5523 98.103 39.809C97.9857 40.0657 97.927 40.359 97.927 40.689V40.722ZM103.554 44C103.481 44 103.419 43.978 103.367 43.934C103.323 43.8827 103.301 43.8203 103.301 43.747V38.544C103.301 38.4707 103.323 38.4083 103.367 38.357C103.419 38.3057 103.481 38.28 103.554 38.28H104.06C104.134 38.28 104.196 38.3057 104.247 38.357C104.299 38.4083 104.324 38.4707 104.324 38.544V39.028C104.471 38.7787 104.673 38.5917 104.929 38.467C105.186 38.3423 105.498 38.28 105.864 38.28H106.293C106.367 38.28 106.425 38.3057 106.469 38.357C106.521 38.401 106.546 38.4597 106.546 38.533V38.984C106.546 39.0573 106.521 39.116 106.469 39.16C106.425 39.204 106.367 39.226 106.293 39.226H105.633C105.237 39.226 104.926 39.3433 104.698 39.578C104.471 39.8053 104.357 40.117 104.357 40.513V43.747C104.357 43.8203 104.332 43.8827 104.28 43.934C104.229 43.978 104.167 44 104.093 44H103.554Z" fill="#384967"/>
<defs>
<clipPath id="clip0_273_3">
<rect width="108" height="34" fill="white"/>
</clipPath>
</defs>
</svg>
